<svg width="148" height="31" xmlns="http://www.w3.org/2000/svg"><g fill="none" fill-rule="evenodd"><path fill="none" d="M37 6h120v28H37z"/><g fill="#FFF"><path d="M67.646 6.664a7.99 7.99 0 0 1 7.989 7.988 7.99 7.99 0 0 1-7.989 7.99 7.99 7.99 0 0 1-7.988-7.99 7.99 7.99 0 0 1 7.988-7.988zm0 11.898a3.906 3.906 0 0 0 3.91-3.91 3.906 3.906 0 0 0-3.91-3.911 3.906 3.906 0 0 0-3.911 3.91 3.906 3.906 0 0 0 3.91 3.911zM82.797 6.673l.02-4.225h-4.189l-.034 4.28-1.533.022-.014 3.627 1.568-.021.013 7.984c0 2.497 1.803 4.3 4.272 4.3.665 0 1.248-.112 1.775-.306l.388-.166V18.45l-.776.278a2.633 2.633 0 0 1-.555.055c-.277 0-.915-.055-.915-.444l.022-7.878 2.17-.018-.087-3.757-2.125-.014zm15.995 9.282l3.911 1.082c-1.692 3.855-5.214 6.351-9.43 5.408-3.772-.832-6.573-4.493-6.185-8.542.915-9.708 14.423-9.32 15.393.25-3.439 1.053-6.934 2.024-10.428 3.05 1.997 2.358 5.547 1.415 6.74-1.248zm-.97-3.717c-1.193-3.19-7.35-1.359-6.685 1.97l6.685-1.97zM116.987 18.313h-7.1l6.906-7.683V6.996h-12.481v3.994h6.684l-7.1 7.71v3.607h13.091zM46.094 22.535v-8.511l7.9 8.538 3.703.003-.014-15.703-4.084-.05v8.542l-7.903-8.512H42v15.693zM132.186 18.313h-7.1l6.906-7.683V6.996h-12.48v3.994h6.683l-7.1 7.71v3.607h13.091zM147.386 18.313h-7.1l6.906-7.683V6.996H134.71v3.994h6.685l-7.1 7.71v3.607h13.09z"/></g><g fill="#FFF"><path d="M15.364 19.158l-3.209 3.21-.35-6.594-1.642-1.641-5.641 5.64 1.805 1.805 3.02-3.021.276 6.693 1.63 1.63 5.916-5.917z"/><path opacity=".7" d="M22.233 12.29l-3.209 3.208-.35-6.593-1.643-1.641-5.64 5.64 1.805 1.805 3.02-3.02.276 6.692 1.63 1.63 5.916-5.917z"/><path opacity=".4" d="M29.102 5.42l-3.21 3.21-.35-6.593L23.9.395l-5.64 5.64 1.805 1.805 3.02-3.02.276 6.692 1.63 1.63 5.916-5.917z"/><path d="M3.026 22.036l6.27 6.319-8.368 1.941z"/><g opacity=".2"><path d="M.89.376H2.42v10.699H.89z"/><path d="M11.59.375v1.528H.89V.375z"/></g><g opacity=".2"><path d="M30.847 28.803v1.528H20.148v-1.528z"/><path d="M29.318 19.633h1.528v10.7h-1.528z"/></g></g></g></svg>