<svg width="121" height="24" xmlns="http://www.w3.org/2000/svg"><g fill="none" fill-rule="evenodd"><path fill="none" d="M1 4h120v28H1z"/><g fill="#FFF"><path d="M29.31 5.33c5.04 0 9.13 4.09 9.13 9.13 0 5.04-4.09 9.13-9.13 9.13-5.04 0-9.13-4.09-9.13-9.13 0-5.04 4.09-9.13 9.13-9.13zm0 13.598a4.464 4.464 0 0 0 4.469-4.47 4.464 4.464 0 0 0-4.47-4.469 4.464 4.464 0 0 0-4.469 4.47 4.464 4.464 0 0 0 4.47 4.47zM46.624 5.341l.023-4.83H41.86l-.04 4.893-1.75.024-.017 4.145 1.792-.024.015 9.126c0 2.853 2.06 4.913 4.882 4.913.76 0 1.426-.127 2.028-.349l.444-.19v-4.247l-.887.316a3.009 3.009 0 0 1-.634.064c-.317 0-1.046-.064-1.046-.507l.025-9.005 2.48-.02-.1-4.293-2.428-.016zm18.28 10.608l4.47 1.236c-1.933 4.406-5.96 7.259-10.777 6.181-4.311-.95-7.513-5.135-7.069-9.763 1.046-11.094 16.483-10.65 17.593.285-3.931 1.205-7.925 2.314-11.919 3.487 2.282 2.694 6.34 1.617 7.703-1.426zM63.797 11.7c-1.363-3.645-8.4-1.553-7.639 2.25l7.64-2.25zM85.7 18.643h-8.115l7.893-8.78V5.71H71.214v4.565h7.639l-8.115 8.812v4.12H85.7zM4.679 23.469V13.74l9.029 9.759 4.232.003-.017-17.947-4.667-.056v9.761L4.224 5.534H0v17.935z"/><path opacity=".5" d="M103.07 18.643h-8.115l7.893-8.78V5.71H88.584v4.565h7.64l-8.115 8.812v4.12h14.961z"/><path opacity=".2" d="M120.44 18.643h-8.114l7.893-8.78V5.71h-14.264v4.565h7.639l-8.115 8.812v4.12h14.962z"/></g></g></svg>