<svg width="147" height="30" xmlns="http://www.w3.org/2000/svg"><g fill="#f0f5f9" fill-rule="evenodd"><path opacity=".4" d="M146.386 18.313h-7.1l6.906-7.683V6.996H133.71v3.994h6.685l-7.1 7.71v3.607h13.09z"/><path opacity=".7" d="M131.186 18.313h-7.1l6.906-7.683V6.996h-12.48v3.994h6.683l-7.1 7.71v3.607h13.091z"/><path d="M66.646 6.664a7.99 7.99 0 0 1 7.989 7.988 7.99 7.99 0 0 1-7.989 7.99 7.99 7.99 0 0 1-7.988-7.99 7.99 7.99 0 0 1 7.988-7.988zm0 11.898a3.906 3.906 0 0 0 3.91-3.91 3.906 3.906 0 0 0-3.91-3.911 3.906 3.906 0 0 0-3.911 3.91 3.906 3.906 0 0 0 3.91 3.911zM81.797 6.673l.02-4.225h-4.189l-.034 4.28-1.533.022-.014 3.627 1.568-.021.013 7.984c0 2.497 1.803 4.3 4.272 4.3.665 0 1.248-.112 1.775-.306l.388-.166V18.45l-.776.278a2.633 2.633 0 0 1-.555.055c-.277 0-.915-.055-.915-.444l.022-7.878 2.17-.018-.087-3.757-2.125-.014zm15.995 9.282l3.911 1.082c-1.692 3.855-5.214 6.351-9.43 5.408-3.772-.832-6.573-4.493-6.185-8.542.915-9.708 14.423-9.32 15.393.25-3.439 1.053-6.934 2.024-10.428 3.05 1.997 2.358 5.547 1.415 6.74-1.248zm-.97-3.717c-1.193-3.19-7.35-1.359-6.685 1.97l6.685-1.97zM45.094 22.535H41V6.842h3.696l7.903 8.512V6.812l4.084.05.014 15.703-3.703-.003-7.9-8.538v8.511zm70.893-4.222v3.994h-13.091V18.7l7.1-7.71h-6.684V6.995h12.481v3.634l-6.906 7.683h7.1zM2.358 0h10.86v2.753H3.733v9.483H.981V0h1.377zm27.148 29.978H18.57v-2.753h9.636v-9.483h2.753v12.236h-1.453zM15.424 18.804l1.806 1.806-5.92 5.92-1.63-1.63-.276-6.698-3.023 3.023-1.806-1.806 5.644-5.645 1.643 1.643.351 6.598 3.211-3.211zm6.874-6.874l1.806 1.806-5.92 5.92-1.63-1.63-.276-6.698-3.023 3.023-1.807-1.806 5.645-5.644 1.643 1.643.351 6.597 3.211-3.21zm6.874-6.874l1.806 1.806-5.92 5.92-1.631-1.63-.276-6.698-3.023 3.023-1.806-1.806L23.967.027 25.61 1.67l.35 6.597 3.212-3.21zM3.077 21.683l6.276 6.324L.978 29.95l2.1-8.267z"/></g></svg>