<?xml version="1.0" encoding="UTF-8"?>
<svg width="193px" height="191px" viewBox="0 0 193 191" version="1.1" xmlns="http://www.w3.org/2000/svg" xmlns:xlink="http://www.w3.org/1999/xlink">
    <!-- Generator: Sketch 47.1 (45422) - http://www.bohemiancoding.com/sketch -->
    <title>Group</title>
    <desc>Created with Sketch.</desc>
    <defs></defs>
    <g id="Page-1" stroke="none" stroke-width="1" fill="none" fill-rule="evenodd">
        <g id="Artboard-2" transform="translate(-7.000000, -1.000000)" fill="#112D4E">
            <g id="Group" transform="translate(89.519030, 106.238330) rotate(-45.000000) translate(-89.519030, -106.238330) translate(-31.480970, 70.738330)">
                <polygon id="Path" points="114.641013 54.1091443 84.9497548 54.1091443 113.829142 21.9850298 113.829142 6.79275902 61.637478 6.79275902 61.637478 23.4926597 89.5890138 23.4926597 59.8977559 55.7327458 59.8977559 70.809045 114.641013 70.809045"></polygon>
                <polygon id="Path" opacity="0.5" points="178.198862 54.1091443 148.507604 54.1091443 177.386992 21.9850298 177.386992 6.79275902 125.195327 6.79275902 125.195327 23.4926597 153.146863 23.4926597 123.455605 55.7327458 123.455605 70.809045 178.198862 70.809045"></polygon>
                <polygon id="Path" opacity="0.2" points="241.756711 54.1091443 212.065453 54.1091443 240.944841 21.9850298 240.944841 6.79275902 188.753176 6.79275902 188.753176 23.4926597 216.704712 23.4926597 187.013454 55.7327458 187.013454 70.809045 241.756711 70.809045"></polygon>
                <polygon id="Triangle" transform="translate(33.707107, 32.707107) rotate(27.000000) translate(-33.707107, -32.707107) " points="35.275514 9.70710678 58.7071068 55.7071068 8.70710678 51.4270025"></polygon>
            </g>
        </g>
    </g>
</svg>